PathFileType	3	(X/Y/Z)	C:\Users\koon_\Desktop\
DataRate	CameraRate	NumFrames	NumMarkers	Units	OrigDataRate	OrigDataStartFrame	OrigNumFrames
100.0	100.0	10	27	mm	100.0	2092	2788	
Frame#	Time	get:LFHD			get:RFHD			get:LBHD			get:RBHD			get:C7			get:T10			get:CLAV			get:STRN			get:RBAK			get:LSHO			get:LUPA			get:LELB			get:LFRA			get:LWRA			get:LWRB			get:LFIN			get:RSHO			get:RUPA			get:RELB			get:RFRA			get:RWRA			get:RWRB			get:RFIN			get:LASI			get:RASI			get:LPSI			get:RPSI			
		X1	Y1	Z1	X2	Y2	Z2	X3	Y3	Z3	X4	Y4	Z4	X5	Y5	Z5	X6	Y6	Z6	X7	Y7	Z7	X8	Y8	Z8	X9	Y9	Z9	X10	Y10	Z10	X11	Y11	Z11	X12	Y12	Z12	X13	Y13	Z13	X14	Y14	Z14	X15	Y15	Z15	X16	Y16	Z16	X17	Y17	Z17	X18	Y18	Z18	X19	Y19	Z19	X20	Y20	Z20	X21	Y21	Z21	X22	Y22	Z22	X23	Y23	Z23	X24	Y24	Z24	X25	Y25	Z25	X26	Y26	Z26	X27	Y27	Z27	
2092	20.91	-376.26999	1412.6023	33.181816	-471.66504	1301.6918	17.005342	-373.99692	1427.8168	-104.72417	-468.97479	1309.2076	-118.8904	-259.27234	1273.6543	-159.70126	-105.08555	1135.8984	-233.68222	-192.88225	1166.6663	8.6865215	-93.618797	1044.3101	22.199793	-276.14111	1169.2599	-215.23004	-147.99899	1367.5905	-59.285534	30.528555	1232.5862	-52.206684	120.08482	1179.1364	-132.77779	138.88701	1101.3854	-72.719543	205.59808	943.57861	-92.178925	264.56931	986.44269	-107.24386	288.29678	910.05365	-92.848236	-358.72894	1161.8087	-86.230034	-380.32059	1025.9543	-109.11706	-369.759	833.27356	-218.09854	-363.44931	692.51422	-145.67587	-352.69943	598.93158	-143.51591	-389.534	611.7597	-207.23645	-391.1514	533.18365	-159.89883	109.22535	946.78711	-66.952438	-172.2088	888.53186	-88.997215	29.867918	972.85522	-257.51065	-54.34866	951.1059	-269.40891
2093	20.92	-372.02759	1415.1565	33.484707	-468.31976	1305.1268	16.526875	-369.61093	1430.3612	-104.39587	-465.8212	1312.4016	-118.37873	-256.33344	1275.2266	-159.53424	-103.35542	1136.2268	-233.61044	-190.82094	1167.3463	8.7586584	-92.516907	1044.1615	22.128527	-273.94965	1171.0432	-215.06621	-144.19536	1367.9994	-58.980499	33.120266	1231.4307	-51.849762	122.32165	1177.3651	-132.42816	140.65797	1099.4288	-72.394691	206.33524	941.18756	-91.968903	265.51031	983.71906	-107.06809	288.80469	907.27649	-92.605598	-356.74112	1164.0116	-86.239403	-379.06915	1028.2061	-109.18175	-368.84381	835.42151	-218.18378	-362.94644	694.69458	-145.9144	-352.57593	601.07349	-143.85278	-389.18408	614.00464	-207.55373	-391.38226	535.39423	-159.72462	109.63054	945.44946	-67.143723	-172.15945	889.11719	-89.314827	30.301636	972.21576	-257.21939	-54.046848	951.09088	-269.55789
2094	20.93	-367.59753	1417.8003	33.837135	-464.87381	1308.6783	16.937593	-365.1908	1433.2438	-104.36469	-462.21375	1315.9263	-117.99863	-253.27107	1276.8632	-159.34732	-101.60804	1136.5251	-233.53287	-188.76758	1168.1075	8.8382177	-91.411186	1044.0737	22.090681	-271.71643	1172.762	-214.85129	-140.25642	1368.4265	-58.730278	35.790565	1230.2119	-51.531273	124.6376	1175.5222	-132.09856	142.43622	1097.4697	-72.005074	207.06271	938.77295	-91.607979	266.45285	980.91199	-106.85362	289.34842	904.35284	-92.299507	-354.66754	1166.2522	-86.245247	-377.88824	1030.4893	-108.50114	-367.7547	837.69104	-218.35121	-362.42206	696.89386	-146.04263	-352.28433	603.24854	-143.87099	-388.72336	616.3006	-207.84341	-391.28488	537.70599	-159.88268	110.11025	944.10907	-67.351227	-172.16524	889.60712	-89.343414	30.706549	971.44019	-256.80612	-53.774849	951.06476	-269.69647
2095	20.94	-362.9697	1420.5377	34.172131	-461.36664	1312.27	18.207159	-360.53821	1435.8342	-104.00632	-458.67044	1319.3925	-117.58837	-250.1626	1278.501	-159.37511	-99.741829	1136.7219	-233.25682	-186.59457	1168.8696	8.9236612	-90.286797	1044.1367	22.704737	-269.58524	1173.9691	-213.81567	-136.19319	1368.8501	-58.481991	38.546799	1229.0117	-51.220352	127.02354	1173.5857	-131.73734	144.26295	1095.4305	-71.660187	207.69844	936.25366	-91.205719	267.43311	978.02295	-106.5639	289.84024	901.39667	-91.864365	-352.45746	1168.5605	-86.230942	-376.45615	1032.8292	-109.3699	-366.71814	840.00879	-218.49756	-361.83395	699.11774	-146.26224	-351.92429	605.50464	-144.00708	-388.10516	618.70764	-208.13319	-391.12512	540.14453	-160.13942	110.59612	942.73254	-67.57003	-172.12294	890.13745	-89.57196	31.0893	970.8847	-256.88599	-53.545849	951.00562	-269.72748
2096	20.95	-358.07022	1423.4517	34.29895	-457.57562	1316.1077	17.818865	-355.74826	1438.5573	-103.79652	-454.96863	1323.0212	-117.07693	-246.90878	1280.1511	-159.31525	-97.859489	1136.9965	-233.38086	-184.37503	1169.7075	8.9888916	-89.141151	1043.9962	22.147671	-267.17883	1175.8058	-213.81282	-132.0291	1369.2599	-58.303143	41.378735	1227.7454	-50.899769	129.38199	1171.5316	-131.46118	146.13966	1093.3546	-71.254234	208.43956	933.70551	-90.769913	268.37003	975.04095	-106.25801	290.32199	898.32733	-91.417816	-350.23499	1170.9716	-86.21051	-375	1035.2626	-109.37266	-365.53104	842.31775	-218.49461	-361.11328	701.3999	-146.40775	-351.47003	607.8595	-144.37033	-387.46271	621.00885	-208.19391	-390.94986	542.67493	-160.51485	111.04	941.34674	-67.689621	-172.01689	890.57489	-89.031982	31.45561	970.22119	-256.95721	-53.343166	950.9209	-269.72021
2097	20.96	-353.14557	1426.3262	34.577312	-453.69275	1320.004	18.176678	-350.76443	1440.9893	-103.32531	-451.23401	1326.7421	-116.6339	-243.56206	1281.7522	-159.18143	-95.986519	1137.2091	-233.49976	-182.07535	1170.5975	9.1015968	-87.958717	1043.972	22.11068	-264.58978	1177.7742	-214.02151	-127.7054	1369.6971	-58.202465	44.277859	1226.4641	-50.666965	131.81972	1169.4513	-131.15099	148.00896	1091.24	-70.871536	209.1346	931.0238	-90.305801	269.34445	971.92401	-105.89904	290.76047	895.18414	-90.900383	-347.84445	1173.4203	-86.090401	-373.63638	1037.7306	-108.62396	-364.3924	844.70679	-218.37543	-360.18561	703.81372	-146.44949	-350.87363	610.18433	-144.6058	-386.65445	623.44141	-208.40985	-390.59406	545.14722	-160.75003	111.51745	939.94659	-67.946663	-171.92786	891.16547	-89.04937	31.819422	969.5387	-256.96338	-53.1059	950.82373	-269.74994
2098	20.97	-348.08551	1429.2714	34.725712	-449.68933	1324.0197	18.558176	-345.58682	1443.7454	-103.07517	-447.24527	1330.5809	-116.26311	-240.08914	1283.4321	-159.15041	-94.012901	1137.3745	-233.40007	-179.65247	1171.5176	9.2052927	-86.669945	1043.9993	22.081732	-262.06882	1179.3501	-213.40234	-123.26596	1370.1193	-58.162468	47.28009	1225.1068	-50.427608	134.28842	1167.243	-130.92841	149.98529	1089.0853	-70.464775	209.71558	928.36188	-89.663406	270.28235	968.73389	-105.54859	291.18292	891.92133	-90.308319	-345.43671	1175.9398	-86.050133	-371.99847	1040.3264	-109.32275	-363.07047	847.09918	-218.13745	-359.25864	706.19281	-146.41539	-350.11029	612.54816	-144.48318	-385.7601	625.94067	-208.52235	-390.04471	547.64404	-160.68849	111.99332	938.50934	-68.084122	-171.97649	891.89685	-87.110733	32.170227	968.89325	-256.98932	-52.86541	950.73322	-269.78891
2099	20.98	-342.68402	1432.3972	34.876865	-445.52466	1328.1985	18.937721	-340.31732	1446.5942	-103.01611	-443.69324	1335.376	-116.35026	-236.56107	1285.4741	-159.9025	-92.091202	1137.438	-233.47752	-177.17564	1172.5287	9.2927866	-85.415428	1044.0651	22.094761	-259.39655	1181.4934	-213.72554	-118.73147	1370.494	-58.180763	50.216862	1223.7697	-50.207771	136.79297	1164.9956	-130.72202	151.89137	1086.8275	-70.10833	210.33974	925.58594	-88.943123	271.14536	965.43433	-105.17169	291.53516	888.64105	-89.618622	-342.90671	1178.5695	-85.924294	-370.40417	1042.9355	-109.22423	-361.70779	849.67023	-218.07574	-358.29074	708.60474	-146.46577	-349.2709	614.97491	-144.51607	-384.86813	628.51196	-208.60172	-389.30518	550.26544	-160.81931	112.49072	937.12347	-68.295731	-171.7095	892.24115	-88.777824	32.540424	968.16907	-257.00177	-52.660892	950.54517	-269.71988
2100	20.99	-337.22253	1435.4938	34.994221	-441.1691	1332.4396	19.366768	-334.81165	1449.7072	-103.03455	-439.20416	1339.1121	-115.69508	-232.92664	1287.2791	-160.09489	-90.117409	1137.5715	-233.47687	-174.69466	1173.5071	9.298687	-84.018341	1044.1637	22.116043	-256.79889	1183.2595	-213.5383	-114.11198	1370.9216	-58.208374	53.340359	1222.4121	-50.073963	139.30548	1162.7361	-130.52316	153.91118	1084.5769	-69.790771	210.86926	922.85028	-88.377579	271.95453	962.17419	-104.71642	291.85959	885.31537	-88.839111	-340.30627	1181.266	-85.858139	-368.83643	1045.6656	-108.30649	-360.3252	852.22412	-217.68898	-357.07483	711.17261	-146.31081	-348.33582	617.49109	-144.48039	-383.78934	631.16284	-208.5824	-388.52927	552.9212	-160.90739	112.97514	935.67712	-68.454475	-171.7236	892.98608	-86.791069	32.842121	967.40717	-256.95316	-52.428482	950.36694	-269.646
2101	21	-331.60349	1438.6287	34.967319	-436.71429	1336.7889	19.710812	-329.15836	1452.6007	-102.93753	-434.83322	1343.2255	-115.43	-229.26872	1289.0603	-160.19763	-88.155762	1137.6743	-233.5172	-172.00424	1174.5967	9.3724365	-82.697807	1044.2881	22.063026	-254.09161	1185.1189	-213.31874	-109.4014	1371.3015	-58.365055	56.493698	1221.0764	-49.971558	141.78752	1160.3455	-130.4202	155.79866	1082.2778	-69.528572	211.3008	919.93188	-88.52047	272.78677	958.79669	-104.27468	292.11581	881.99249	-88.10141	-337.65005	1184.0256	-85.829063	-367.02795	1048.4352	-108.94219	-358.78787	854.87799	-217.4429	-355.81091	713.80261	-146.11932	-347.24918	620.0907	-144.20433	-382.5473	633.85541	-208.48923	-387.5397	555.56604	-160.7583	113.52137	934.28174	-68.601044	-171.54616	893.58093	-86.536224	33.190605	966.6897	-256.97522	-52.227573	950.15668	-269.51645
